<mxfile host="app.diagrams.net" agent="Mozilla/5.0 (Windows NT 10.0; Win64; x64) AppleWebKit/537.36 (KHTML, like Gecko) Chrome/133.0.0.0 Safari/537.36" version="26.0.14">
  <diagram name="Page-1" id="RNJy3FhXbEkKiUze5Ja7">
    <mxGraphModel dx="2368" dy="614" grid="1" gridSize="10" guides="1" tooltips="1" connect="1" arrows="1" fold="1" page="1" pageScale="1" pageWidth="850" pageHeight="1100" math="0" shadow="0">
      <root>
        <mxCell id="0" />
        <mxCell id="1" parent="0" />
        <mxCell id="9ttiAXNQikp2hNH5S8NI-514" value="" style="edgeStyle=orthogonalEdgeStyle;rounded=0;orthogonalLoop=1;jettySize=auto;html=1;" edge="1" parent="1" source="AHnlYJfSwKm474h9auV9-1" target="9ttiAXNQikp2hNH5S8NI-513">
          <mxGeometry relative="1" as="geometry" />
        </mxCell>
        <mxCell id="AHnlYJfSwKm474h9auV9-1" value="LOGIN" style="rounded=1;whiteSpace=wrap;html=1;" parent="1" vertex="1">
          <mxGeometry x="350" y="110" width="120" height="40" as="geometry" />
        </mxCell>
        <mxCell id="AHnlYJfSwKm474h9auV9-9" value="" style="edgeStyle=orthogonalEdgeStyle;rounded=0;orthogonalLoop=1;jettySize=auto;html=1;entryX=0;entryY=0.5;entryDx=0;entryDy=0;exitX=0;exitY=0.5;exitDx=0;exitDy=0;" parent="1" edge="1">
          <mxGeometry relative="1" as="geometry">
            <mxPoint x="360" y="252" as="sourcePoint" />
            <mxPoint x="350" y="127" as="targetPoint" />
            <Array as="points">
              <mxPoint x="360" y="257" />
              <mxPoint x="281" y="257" />
              <mxPoint x="281" y="127" />
            </Array>
          </mxGeometry>
        </mxCell>
        <mxCell id="AHnlYJfSwKm474h9auV9-36" value="" style="edgeStyle=orthogonalEdgeStyle;rounded=0;orthogonalLoop=1;jettySize=auto;html=1;" parent="1" target="AHnlYJfSwKm474h9auV9-28" edge="1">
          <mxGeometry relative="1" as="geometry">
            <mxPoint x="410" y="410" as="sourcePoint" />
          </mxGeometry>
        </mxCell>
        <mxCell id="AHnlYJfSwKm474h9auV9-19" value="A" style="ellipse;whiteSpace=wrap;html=1;aspect=fixed;" parent="1" vertex="1">
          <mxGeometry x="510" y="460" width="60" height="60" as="geometry" />
        </mxCell>
        <mxCell id="AHnlYJfSwKm474h9auV9-37" value="" style="edgeStyle=orthogonalEdgeStyle;rounded=0;orthogonalLoop=1;jettySize=auto;html=1;" parent="1" source="AHnlYJfSwKm474h9auV9-28" target="AHnlYJfSwKm474h9auV9-31" edge="1">
          <mxGeometry relative="1" as="geometry" />
        </mxCell>
        <mxCell id="AHnlYJfSwKm474h9auV9-54" value="" style="edgeStyle=orthogonalEdgeStyle;rounded=0;orthogonalLoop=1;jettySize=auto;html=1;" parent="1" source="AHnlYJfSwKm474h9auV9-28" target="AHnlYJfSwKm474h9auV9-19" edge="1">
          <mxGeometry relative="1" as="geometry" />
        </mxCell>
        <mxCell id="9ttiAXNQikp2hNH5S8NI-569" value="" style="edgeStyle=orthogonalEdgeStyle;rounded=0;orthogonalLoop=1;jettySize=auto;html=1;entryX=0.5;entryY=0;entryDx=0;entryDy=0;" edge="1" parent="1" source="AHnlYJfSwKm474h9auV9-28" target="9ttiAXNQikp2hNH5S8NI-567">
          <mxGeometry relative="1" as="geometry">
            <mxPoint x="109.99999999999955" y="490" as="targetPoint" />
            <Array as="points">
              <mxPoint x="110" y="490" />
            </Array>
          </mxGeometry>
        </mxCell>
        <mxCell id="AHnlYJfSwKm474h9auV9-28" value="&lt;div&gt;&lt;br&gt;&lt;/div&gt;Admin Memilih menu 1" style="rhombus;whiteSpace=wrap;html=1;rounded=0;" parent="1" vertex="1">
          <mxGeometry x="360" y="440" width="100" height="100" as="geometry" />
        </mxCell>
        <mxCell id="AHnlYJfSwKm474h9auV9-38" value="" style="edgeStyle=orthogonalEdgeStyle;rounded=0;orthogonalLoop=1;jettySize=auto;html=1;" parent="1" source="AHnlYJfSwKm474h9auV9-31" target="AHnlYJfSwKm474h9auV9-32" edge="1">
          <mxGeometry relative="1" as="geometry" />
        </mxCell>
        <mxCell id="AHnlYJfSwKm474h9auV9-55" value="" style="edgeStyle=orthogonalEdgeStyle;rounded=0;orthogonalLoop=1;jettySize=auto;html=1;" parent="1" source="AHnlYJfSwKm474h9auV9-31" target="AHnlYJfSwKm474h9auV9-52" edge="1">
          <mxGeometry relative="1" as="geometry" />
        </mxCell>
        <mxCell id="9ttiAXNQikp2hNH5S8NI-571" value="" style="edgeStyle=orthogonalEdgeStyle;rounded=0;orthogonalLoop=1;jettySize=auto;html=1;" edge="1" parent="1" source="AHnlYJfSwKm474h9auV9-31">
          <mxGeometry relative="1" as="geometry">
            <mxPoint x="110" y="630" as="targetPoint" />
          </mxGeometry>
        </mxCell>
        <mxCell id="AHnlYJfSwKm474h9auV9-31" value="&lt;div&gt;&lt;br&gt;&lt;/div&gt;Admin Memilih menu 2" style="rhombus;whiteSpace=wrap;html=1;rounded=0;" parent="1" vertex="1">
          <mxGeometry x="360" y="580" width="100" height="100" as="geometry" />
        </mxCell>
        <mxCell id="AHnlYJfSwKm474h9auV9-39" value="" style="edgeStyle=orthogonalEdgeStyle;rounded=0;orthogonalLoop=1;jettySize=auto;html=1;" parent="1" source="AHnlYJfSwKm474h9auV9-32" target="AHnlYJfSwKm474h9auV9-33" edge="1">
          <mxGeometry relative="1" as="geometry" />
        </mxCell>
        <mxCell id="AHnlYJfSwKm474h9auV9-56" value="" style="edgeStyle=orthogonalEdgeStyle;rounded=0;orthogonalLoop=1;jettySize=auto;html=1;" parent="1" source="AHnlYJfSwKm474h9auV9-32" target="AHnlYJfSwKm474h9auV9-51" edge="1">
          <mxGeometry relative="1" as="geometry" />
        </mxCell>
        <mxCell id="9ttiAXNQikp2hNH5S8NI-575" value="" style="edgeStyle=orthogonalEdgeStyle;rounded=0;orthogonalLoop=1;jettySize=auto;html=1;exitX=0;exitY=0.5;exitDx=0;exitDy=0;" edge="1" parent="1" source="AHnlYJfSwKm474h9auV9-32">
          <mxGeometry relative="1" as="geometry">
            <mxPoint x="299.99999999999955" y="767.41" as="sourcePoint" />
            <mxPoint x="169.99999999999955" y="767.41" as="targetPoint" />
            <Array as="points">
              <mxPoint x="180" y="768" />
            </Array>
          </mxGeometry>
        </mxCell>
        <mxCell id="AHnlYJfSwKm474h9auV9-32" value="&lt;div&gt;&lt;br&gt;&lt;/div&gt;Admin Memilih menu 3" style="rhombus;whiteSpace=wrap;html=1;rounded=0;" parent="1" vertex="1">
          <mxGeometry x="360" y="718" width="100" height="100" as="geometry" />
        </mxCell>
        <mxCell id="AHnlYJfSwKm474h9auV9-40" value="" style="edgeStyle=orthogonalEdgeStyle;rounded=0;orthogonalLoop=1;jettySize=auto;html=1;" parent="1" source="AHnlYJfSwKm474h9auV9-33" target="AHnlYJfSwKm474h9auV9-34" edge="1">
          <mxGeometry relative="1" as="geometry" />
        </mxCell>
        <mxCell id="AHnlYJfSwKm474h9auV9-57" value="" style="edgeStyle=orthogonalEdgeStyle;rounded=0;orthogonalLoop=1;jettySize=auto;html=1;" parent="1" source="AHnlYJfSwKm474h9auV9-33" target="AHnlYJfSwKm474h9auV9-50" edge="1">
          <mxGeometry relative="1" as="geometry" />
        </mxCell>
        <mxCell id="9ttiAXNQikp2hNH5S8NI-577" value="" style="edgeStyle=orthogonalEdgeStyle;rounded=0;orthogonalLoop=1;jettySize=auto;html=1;entryX=0.5;entryY=1;entryDx=0;entryDy=0;" edge="1" parent="1" source="AHnlYJfSwKm474h9auV9-33" target="9ttiAXNQikp2hNH5S8NI-567">
          <mxGeometry relative="1" as="geometry">
            <mxPoint x="120" y="910" as="targetPoint" />
            <Array as="points">
              <mxPoint x="110" y="910" />
            </Array>
          </mxGeometry>
        </mxCell>
        <mxCell id="AHnlYJfSwKm474h9auV9-33" value="&lt;div&gt;&lt;br&gt;&lt;/div&gt;Admin Memilih menu 4" style="rhombus;whiteSpace=wrap;html=1;rounded=0;" parent="1" vertex="1">
          <mxGeometry x="360" y="860" width="100" height="100" as="geometry" />
        </mxCell>
        <mxCell id="9ttiAXNQikp2hNH5S8NI-11" value="" style="edgeStyle=orthogonalEdgeStyle;rounded=0;orthogonalLoop=1;jettySize=auto;html=1;" edge="1" parent="1" source="AHnlYJfSwKm474h9auV9-34" target="9ttiAXNQikp2hNH5S8NI-9">
          <mxGeometry relative="1" as="geometry" />
        </mxCell>
        <mxCell id="9ttiAXNQikp2hNH5S8NI-580" value="" style="edgeStyle=orthogonalEdgeStyle;rounded=0;orthogonalLoop=1;jettySize=auto;html=1;" edge="1" parent="1" source="AHnlYJfSwKm474h9auV9-34">
          <mxGeometry relative="1" as="geometry">
            <mxPoint x="110" y="910" as="targetPoint" />
            <Array as="points">
              <mxPoint x="110" y="1050" />
              <mxPoint x="110" y="1050" />
            </Array>
          </mxGeometry>
        </mxCell>
        <mxCell id="AHnlYJfSwKm474h9auV9-34" value="&lt;div&gt;&lt;br&gt;&lt;/div&gt;Admin Memilih menu 5" style="rhombus;whiteSpace=wrap;html=1;rounded=0;" parent="1" vertex="1">
          <mxGeometry x="360" y="1000" width="100" height="100" as="geometry" />
        </mxCell>
        <mxCell id="9ttiAXNQikp2hNH5S8NI-512" value="" style="edgeStyle=orthogonalEdgeStyle;rounded=0;orthogonalLoop=1;jettySize=auto;html=1;" edge="1" parent="1" source="AHnlYJfSwKm474h9auV9-43" target="9ttiAXNQikp2hNH5S8NI-511">
          <mxGeometry relative="1" as="geometry" />
        </mxCell>
        <mxCell id="AHnlYJfSwKm474h9auV9-43" value="Logout" style="rounded=1;whiteSpace=wrap;html=1;" parent="1" vertex="1">
          <mxGeometry x="360" y="1270" width="100" height="50" as="geometry" />
        </mxCell>
        <mxCell id="AHnlYJfSwKm474h9auV9-50" value="D" style="ellipse;whiteSpace=wrap;html=1;aspect=fixed;" parent="1" vertex="1">
          <mxGeometry x="510" y="880" width="60" height="60" as="geometry" />
        </mxCell>
        <mxCell id="AHnlYJfSwKm474h9auV9-51" value="C" style="ellipse;whiteSpace=wrap;html=1;aspect=fixed;" parent="1" vertex="1">
          <mxGeometry x="510" y="738" width="60" height="60" as="geometry" />
        </mxCell>
        <mxCell id="AHnlYJfSwKm474h9auV9-52" value="B" style="ellipse;whiteSpace=wrap;html=1;aspect=fixed;" parent="1" vertex="1">
          <mxGeometry x="510" y="600" width="60" height="60" as="geometry" />
        </mxCell>
        <mxCell id="AHnlYJfSwKm474h9auV9-58" value="&lt;font style=&quot;font-size: 24px;&quot;&gt;&lt;b style=&quot;&quot;&gt;ADMIN&lt;/b&gt;&lt;/font&gt;" style="text;html=1;align=center;verticalAlign=middle;resizable=0;points=[];autosize=1;strokeColor=none;fillColor=none;" parent="1" vertex="1">
          <mxGeometry x="50" y="10" width="100" height="40" as="geometry" />
        </mxCell>
        <mxCell id="AHnlYJfSwKm474h9auV9-62" value="Ya" style="text;html=1;align=center;verticalAlign=middle;resizable=0;points=[];autosize=1;strokeColor=none;fillColor=none;" parent="1" vertex="1">
          <mxGeometry x="450" y="460" width="40" height="30" as="geometry" />
        </mxCell>
        <mxCell id="AHnlYJfSwKm474h9auV9-65" value="Tidak" style="text;html=1;align=center;verticalAlign=middle;resizable=0;points=[];autosize=1;strokeColor=none;fillColor=none;" parent="1" vertex="1">
          <mxGeometry x="295" y="230" width="50" height="30" as="geometry" />
        </mxCell>
        <mxCell id="AHnlYJfSwKm474h9auV9-66" value="Ya&lt;span style=&quot;white-space: pre;&quot;&gt;&#x9;&lt;/span&gt;" style="text;html=1;align=center;verticalAlign=middle;resizable=0;points=[];autosize=1;strokeColor=none;fillColor=none;" parent="1" vertex="1">
          <mxGeometry x="445" y="590" width="50" height="30" as="geometry" />
        </mxCell>
        <mxCell id="AHnlYJfSwKm474h9auV9-67" value="Tidak" style="text;html=1;align=center;verticalAlign=middle;resizable=0;points=[];autosize=1;strokeColor=none;fillColor=none;" parent="1" vertex="1">
          <mxGeometry x="295" y="450" width="50" height="30" as="geometry" />
        </mxCell>
        <mxCell id="AHnlYJfSwKm474h9auV9-68" value="Ya" style="text;html=1;align=center;verticalAlign=middle;resizable=0;points=[];autosize=1;strokeColor=none;fillColor=none;" parent="1" vertex="1">
          <mxGeometry x="455" y="730" width="40" height="30" as="geometry" />
        </mxCell>
        <mxCell id="AHnlYJfSwKm474h9auV9-69" value="Ya" style="text;html=1;align=center;verticalAlign=middle;resizable=0;points=[];autosize=1;strokeColor=none;fillColor=none;" parent="1" vertex="1">
          <mxGeometry x="450" y="865" width="40" height="30" as="geometry" />
        </mxCell>
        <mxCell id="AHnlYJfSwKm474h9auV9-70" value="Ya" style="text;html=1;align=center;verticalAlign=middle;resizable=0;points=[];autosize=1;strokeColor=none;fillColor=none;" parent="1" vertex="1">
          <mxGeometry x="455" y="1005" width="40" height="30" as="geometry" />
        </mxCell>
        <mxCell id="AHnlYJfSwKm474h9auV9-71" value="Tidak" style="text;html=1;align=center;verticalAlign=middle;resizable=0;points=[];autosize=1;strokeColor=none;fillColor=none;" parent="1" vertex="1">
          <mxGeometry x="295" y="598" width="50" height="30" as="geometry" />
        </mxCell>
        <mxCell id="AHnlYJfSwKm474h9auV9-73" value="Tidak" style="text;html=1;align=center;verticalAlign=middle;resizable=0;points=[];autosize=1;strokeColor=none;fillColor=none;" parent="1" vertex="1">
          <mxGeometry x="295" y="730" width="50" height="30" as="geometry" />
        </mxCell>
        <mxCell id="9ttiAXNQikp2hNH5S8NI-2" value="" style="edgeStyle=orthogonalEdgeStyle;rounded=0;orthogonalLoop=1;jettySize=auto;html=1;" edge="1" parent="1" source="AHnlYJfSwKm474h9auV9-34" target="9ttiAXNQikp2hNH5S8NI-1">
          <mxGeometry relative="1" as="geometry">
            <mxPoint x="410" y="1060" as="sourcePoint" />
            <mxPoint x="410" y="1270" as="targetPoint" />
          </mxGeometry>
        </mxCell>
        <mxCell id="9ttiAXNQikp2hNH5S8NI-12" value="" style="edgeStyle=orthogonalEdgeStyle;rounded=0;orthogonalLoop=1;jettySize=auto;html=1;" edge="1" parent="1" source="9ttiAXNQikp2hNH5S8NI-1" target="9ttiAXNQikp2hNH5S8NI-10">
          <mxGeometry relative="1" as="geometry" />
        </mxCell>
        <mxCell id="9ttiAXNQikp2hNH5S8NI-532" value="" style="edgeStyle=orthogonalEdgeStyle;rounded=0;orthogonalLoop=1;jettySize=auto;html=1;" edge="1" parent="1" source="9ttiAXNQikp2hNH5S8NI-1" target="AHnlYJfSwKm474h9auV9-43">
          <mxGeometry relative="1" as="geometry" />
        </mxCell>
        <mxCell id="9ttiAXNQikp2hNH5S8NI-582" value="" style="edgeStyle=orthogonalEdgeStyle;rounded=0;orthogonalLoop=1;jettySize=auto;html=1;" edge="1" parent="1" source="9ttiAXNQikp2hNH5S8NI-1">
          <mxGeometry relative="1" as="geometry">
            <mxPoint x="110" y="1050" as="targetPoint" />
            <Array as="points">
              <mxPoint x="120" y="1180" />
              <mxPoint x="120" y="1180" />
            </Array>
          </mxGeometry>
        </mxCell>
        <mxCell id="9ttiAXNQikp2hNH5S8NI-1" value="&lt;div&gt;&lt;br&gt;&lt;/div&gt;Admin Memilih menu 6" style="rhombus;whiteSpace=wrap;html=1;rounded=0;" vertex="1" parent="1">
          <mxGeometry x="360" y="1130" width="100" height="100" as="geometry" />
        </mxCell>
        <mxCell id="9ttiAXNQikp2hNH5S8NI-9" value="E" style="ellipse;whiteSpace=wrap;html=1;aspect=fixed;" vertex="1" parent="1">
          <mxGeometry x="510" y="1020" width="60" height="60" as="geometry" />
        </mxCell>
        <mxCell id="9ttiAXNQikp2hNH5S8NI-10" value="E" style="ellipse;whiteSpace=wrap;html=1;aspect=fixed;" vertex="1" parent="1">
          <mxGeometry x="510" y="1150" width="60" height="60" as="geometry" />
        </mxCell>
        <mxCell id="9ttiAXNQikp2hNH5S8NI-13" value="Ya" style="text;html=1;align=center;verticalAlign=middle;resizable=0;points=[];autosize=1;strokeColor=none;fillColor=none;" vertex="1" parent="1">
          <mxGeometry x="455" y="1130" width="40" height="30" as="geometry" />
        </mxCell>
        <mxCell id="9ttiAXNQikp2hNH5S8NI-104" value="" style="edgeStyle=orthogonalEdgeStyle;rounded=0;orthogonalLoop=1;jettySize=auto;html=1;entryX=0;entryY=0.5;entryDx=0;entryDy=0;" edge="1" parent="1" source="9ttiAXNQikp2hNH5S8NI-105">
          <mxGeometry relative="1" as="geometry">
            <mxPoint x="-482" y="280" as="targetPoint" />
            <Array as="points">
              <mxPoint x="-650" y="784" />
              <mxPoint x="-650" y="280" />
            </Array>
          </mxGeometry>
        </mxCell>
        <mxCell id="9ttiAXNQikp2hNH5S8NI-119" value="&lt;b style=&quot;color: rgb(0, 0, 0); text-wrap-mode: nowrap; text-align: center; background-color: rgb(251, 251, 251);&quot;&gt;&lt;font style=&quot;font-size: 24px;&quot;&gt;USER&lt;/font&gt;&lt;/b&gt;" style="text;whiteSpace=wrap;html=1;" vertex="1" parent="1">
          <mxGeometry x="-820" y="15" width="160" height="70" as="geometry" />
        </mxCell>
        <mxCell id="9ttiAXNQikp2hNH5S8NI-508" value="" style="edgeStyle=orthogonalEdgeStyle;rounded=0;orthogonalLoop=1;jettySize=auto;html=1;" edge="1" parent="1" source="9ttiAXNQikp2hNH5S8NI-173" target="9ttiAXNQikp2hNH5S8NI-506">
          <mxGeometry relative="1" as="geometry" />
        </mxCell>
        <mxCell id="9ttiAXNQikp2hNH5S8NI-173" value="LOGIN" style="rounded=1;whiteSpace=wrap;html=1;" vertex="1" parent="1">
          <mxGeometry x="-520" y="120" width="121" height="50" as="geometry" />
        </mxCell>
        <mxCell id="9ttiAXNQikp2hNH5S8NI-180" value="A" style="ellipse;whiteSpace=wrap;html=1;aspect=fixed;" vertex="1" parent="1">
          <mxGeometry x="-340" y="470" width="60" height="60" as="geometry" />
        </mxCell>
        <mxCell id="9ttiAXNQikp2hNH5S8NI-181" value="" style="edgeStyle=orthogonalEdgeStyle;rounded=0;orthogonalLoop=1;jettySize=auto;html=1;" edge="1" parent="1" source="9ttiAXNQikp2hNH5S8NI-183" target="9ttiAXNQikp2hNH5S8NI-186">
          <mxGeometry relative="1" as="geometry" />
        </mxCell>
        <mxCell id="9ttiAXNQikp2hNH5S8NI-182" value="" style="edgeStyle=orthogonalEdgeStyle;rounded=0;orthogonalLoop=1;jettySize=auto;html=1;" edge="1" parent="1" source="9ttiAXNQikp2hNH5S8NI-183" target="9ttiAXNQikp2hNH5S8NI-180">
          <mxGeometry relative="1" as="geometry" />
        </mxCell>
        <mxCell id="9ttiAXNQikp2hNH5S8NI-592" value="" style="edgeStyle=orthogonalEdgeStyle;rounded=0;orthogonalLoop=1;jettySize=auto;html=1;entryX=0.5;entryY=0;entryDx=0;entryDy=0;" edge="1" parent="1" source="9ttiAXNQikp2hNH5S8NI-183" target="9ttiAXNQikp2hNH5S8NI-590">
          <mxGeometry relative="1" as="geometry">
            <mxPoint x="-700" y="500" as="targetPoint" />
            <Array as="points">
              <mxPoint x="-700" y="500" />
            </Array>
          </mxGeometry>
        </mxCell>
        <mxCell id="9ttiAXNQikp2hNH5S8NI-183" value="&lt;div&gt;&lt;br&gt;&lt;/div&gt;User Memilih menu 1" style="rhombus;whiteSpace=wrap;html=1;rounded=0;" vertex="1" parent="1">
          <mxGeometry x="-510" y="450" width="100" height="100" as="geometry" />
        </mxCell>
        <mxCell id="9ttiAXNQikp2hNH5S8NI-184" value="" style="edgeStyle=orthogonalEdgeStyle;rounded=0;orthogonalLoop=1;jettySize=auto;html=1;" edge="1" parent="1" source="9ttiAXNQikp2hNH5S8NI-186" target="9ttiAXNQikp2hNH5S8NI-189">
          <mxGeometry relative="1" as="geometry" />
        </mxCell>
        <mxCell id="9ttiAXNQikp2hNH5S8NI-185" value="" style="edgeStyle=orthogonalEdgeStyle;rounded=0;orthogonalLoop=1;jettySize=auto;html=1;" edge="1" parent="1" source="9ttiAXNQikp2hNH5S8NI-186" target="9ttiAXNQikp2hNH5S8NI-199">
          <mxGeometry relative="1" as="geometry" />
        </mxCell>
        <mxCell id="9ttiAXNQikp2hNH5S8NI-594" value="" style="edgeStyle=orthogonalEdgeStyle;rounded=0;orthogonalLoop=1;jettySize=auto;html=1;" edge="1" parent="1" source="9ttiAXNQikp2hNH5S8NI-186">
          <mxGeometry relative="1" as="geometry">
            <mxPoint x="-700" y="629.9999999999998" as="targetPoint" />
          </mxGeometry>
        </mxCell>
        <mxCell id="9ttiAXNQikp2hNH5S8NI-186" value="&lt;div&gt;&lt;br&gt;&lt;/div&gt;User Memilih menu 2" style="rhombus;whiteSpace=wrap;html=1;rounded=0;" vertex="1" parent="1">
          <mxGeometry x="-510" y="580" width="100" height="100" as="geometry" />
        </mxCell>
        <mxCell id="9ttiAXNQikp2hNH5S8NI-187" value="" style="edgeStyle=orthogonalEdgeStyle;rounded=0;orthogonalLoop=1;jettySize=auto;html=1;" edge="1" parent="1" source="9ttiAXNQikp2hNH5S8NI-189" target="9ttiAXNQikp2hNH5S8NI-192">
          <mxGeometry relative="1" as="geometry" />
        </mxCell>
        <mxCell id="9ttiAXNQikp2hNH5S8NI-188" value="" style="edgeStyle=orthogonalEdgeStyle;rounded=0;orthogonalLoop=1;jettySize=auto;html=1;" edge="1" parent="1" source="9ttiAXNQikp2hNH5S8NI-189">
          <mxGeometry relative="1" as="geometry">
            <mxPoint x="-370" y="760" as="targetPoint" />
          </mxGeometry>
        </mxCell>
        <mxCell id="9ttiAXNQikp2hNH5S8NI-596" value="" style="edgeStyle=orthogonalEdgeStyle;rounded=0;orthogonalLoop=1;jettySize=auto;html=1;" edge="1" parent="1" source="9ttiAXNQikp2hNH5S8NI-189">
          <mxGeometry relative="1" as="geometry">
            <mxPoint x="-640" y="759.9999999999998" as="targetPoint" />
          </mxGeometry>
        </mxCell>
        <mxCell id="9ttiAXNQikp2hNH5S8NI-189" value="&lt;div&gt;&lt;br&gt;&lt;/div&gt;User Memilih menu 3" style="rhombus;whiteSpace=wrap;html=1;rounded=0;" vertex="1" parent="1">
          <mxGeometry x="-510" y="710" width="100" height="100" as="geometry" />
        </mxCell>
        <mxCell id="9ttiAXNQikp2hNH5S8NI-190" value="" style="edgeStyle=orthogonalEdgeStyle;rounded=0;orthogonalLoop=1;jettySize=auto;html=1;" edge="1" parent="1" source="9ttiAXNQikp2hNH5S8NI-192" target="9ttiAXNQikp2hNH5S8NI-195">
          <mxGeometry relative="1" as="geometry" />
        </mxCell>
        <mxCell id="9ttiAXNQikp2hNH5S8NI-191" value="" style="edgeStyle=orthogonalEdgeStyle;rounded=0;orthogonalLoop=1;jettySize=auto;html=1;" edge="1" parent="1" source="9ttiAXNQikp2hNH5S8NI-192">
          <mxGeometry relative="1" as="geometry">
            <mxPoint x="-370" y="890" as="targetPoint" />
          </mxGeometry>
        </mxCell>
        <mxCell id="9ttiAXNQikp2hNH5S8NI-598" value="" style="edgeStyle=orthogonalEdgeStyle;rounded=0;orthogonalLoop=1;jettySize=auto;html=1;entryX=0.5;entryY=1;entryDx=0;entryDy=0;" edge="1" parent="1" source="9ttiAXNQikp2hNH5S8NI-192" target="9ttiAXNQikp2hNH5S8NI-590">
          <mxGeometry relative="1" as="geometry">
            <mxPoint x="-700" y="889.9999999999998" as="targetPoint" />
            <Array as="points">
              <mxPoint x="-700" y="890" />
            </Array>
          </mxGeometry>
        </mxCell>
        <mxCell id="9ttiAXNQikp2hNH5S8NI-192" value="&lt;div&gt;&lt;br&gt;&lt;/div&gt;User Memilih menu 4" style="rhombus;whiteSpace=wrap;html=1;rounded=0;" vertex="1" parent="1">
          <mxGeometry x="-510" y="840" width="100" height="100" as="geometry" />
        </mxCell>
        <mxCell id="9ttiAXNQikp2hNH5S8NI-520" value="" style="edgeStyle=orthogonalEdgeStyle;rounded=0;orthogonalLoop=1;jettySize=auto;html=1;" edge="1" parent="1" source="9ttiAXNQikp2hNH5S8NI-195" target="9ttiAXNQikp2hNH5S8NI-516">
          <mxGeometry relative="1" as="geometry" />
        </mxCell>
        <mxCell id="9ttiAXNQikp2hNH5S8NI-600" value="" style="edgeStyle=orthogonalEdgeStyle;rounded=0;orthogonalLoop=1;jettySize=auto;html=1;" edge="1" parent="1" source="9ttiAXNQikp2hNH5S8NI-195">
          <mxGeometry relative="1" as="geometry">
            <mxPoint x="-700" y="890" as="targetPoint" />
            <Array as="points">
              <mxPoint x="-640" y="1020" />
              <mxPoint x="-640" y="1020" />
            </Array>
          </mxGeometry>
        </mxCell>
        <mxCell id="9ttiAXNQikp2hNH5S8NI-195" value="&lt;div&gt;&lt;br&gt;&lt;/div&gt;User Memilih menu 5" style="rhombus;whiteSpace=wrap;html=1;rounded=0;" vertex="1" parent="1">
          <mxGeometry x="-510" y="970" width="100" height="100" as="geometry" />
        </mxCell>
        <mxCell id="9ttiAXNQikp2hNH5S8NI-504" value="" style="edgeStyle=orthogonalEdgeStyle;rounded=0;orthogonalLoop=1;jettySize=auto;html=1;" edge="1" parent="1" source="9ttiAXNQikp2hNH5S8NI-196" target="9ttiAXNQikp2hNH5S8NI-502">
          <mxGeometry relative="1" as="geometry" />
        </mxCell>
        <mxCell id="9ttiAXNQikp2hNH5S8NI-196" value="Logout" style="rounded=1;whiteSpace=wrap;html=1;" vertex="1" parent="1">
          <mxGeometry x="-509" y="1270" width="100" height="50" as="geometry" />
        </mxCell>
        <mxCell id="9ttiAXNQikp2hNH5S8NI-199" value="B" style="ellipse;whiteSpace=wrap;html=1;aspect=fixed;" vertex="1" parent="1">
          <mxGeometry x="-340" y="600" width="60" height="60" as="geometry" />
        </mxCell>
        <mxCell id="9ttiAXNQikp2hNH5S8NI-200" value="Ya" style="text;html=1;align=center;verticalAlign=middle;resizable=0;points=[];autosize=1;strokeColor=none;fillColor=none;" vertex="1" parent="1">
          <mxGeometry x="-420" y="470" width="40" height="30" as="geometry" />
        </mxCell>
        <mxCell id="9ttiAXNQikp2hNH5S8NI-202" value="Ya" style="text;html=1;align=center;verticalAlign=middle;resizable=0;points=[];autosize=1;strokeColor=none;fillColor=none;" vertex="1" parent="1">
          <mxGeometry x="-420" y="600" width="40" height="30" as="geometry" />
        </mxCell>
        <mxCell id="9ttiAXNQikp2hNH5S8NI-203" value="Tidak" style="text;html=1;align=center;verticalAlign=middle;resizable=0;points=[];autosize=1;strokeColor=none;fillColor=none;" vertex="1" parent="1">
          <mxGeometry x="-575" y="473.76" width="50" height="30" as="geometry" />
        </mxCell>
        <mxCell id="9ttiAXNQikp2hNH5S8NI-204" value="Ya" style="text;html=1;align=center;verticalAlign=middle;resizable=0;points=[];autosize=1;strokeColor=none;fillColor=none;" vertex="1" parent="1">
          <mxGeometry x="-420" y="730" width="40" height="30" as="geometry" />
        </mxCell>
        <mxCell id="9ttiAXNQikp2hNH5S8NI-205" value="Ya" style="text;html=1;align=center;verticalAlign=middle;resizable=0;points=[];autosize=1;strokeColor=none;fillColor=none;" vertex="1" parent="1">
          <mxGeometry x="-420" y="860" width="40" height="30" as="geometry" />
        </mxCell>
        <mxCell id="9ttiAXNQikp2hNH5S8NI-206" value="Ya" style="text;html=1;align=center;verticalAlign=middle;resizable=0;points=[];autosize=1;strokeColor=none;fillColor=none;" vertex="1" parent="1">
          <mxGeometry x="-415" y="983.75" width="40" height="30" as="geometry" />
        </mxCell>
        <mxCell id="9ttiAXNQikp2hNH5S8NI-207" value="Tidak" style="text;html=1;align=center;verticalAlign=middle;resizable=0;points=[];autosize=1;strokeColor=none;fillColor=none;" vertex="1" parent="1">
          <mxGeometry x="-575" y="598" width="50" height="30" as="geometry" />
        </mxCell>
        <mxCell id="9ttiAXNQikp2hNH5S8NI-208" value="Tidak" style="text;html=1;align=center;verticalAlign=middle;resizable=0;points=[];autosize=1;strokeColor=none;fillColor=none;" vertex="1" parent="1">
          <mxGeometry x="-575" y="730" width="50" height="30" as="geometry" />
        </mxCell>
        <mxCell id="9ttiAXNQikp2hNH5S8NI-209" value="Tidak" style="text;html=1;align=center;verticalAlign=middle;resizable=0;points=[];autosize=1;strokeColor=none;fillColor=none;" vertex="1" parent="1">
          <mxGeometry x="-575" y="860" width="50" height="30" as="geometry" />
        </mxCell>
        <mxCell id="9ttiAXNQikp2hNH5S8NI-211" value="" style="edgeStyle=orthogonalEdgeStyle;rounded=0;orthogonalLoop=1;jettySize=auto;html=1;" edge="1" parent="1" source="9ttiAXNQikp2hNH5S8NI-195" target="9ttiAXNQikp2hNH5S8NI-213">
          <mxGeometry relative="1" as="geometry">
            <mxPoint x="-460" y="1070" as="sourcePoint" />
            <mxPoint x="-460" y="1280" as="targetPoint" />
          </mxGeometry>
        </mxCell>
        <mxCell id="9ttiAXNQikp2hNH5S8NI-521" value="" style="edgeStyle=orthogonalEdgeStyle;rounded=0;orthogonalLoop=1;jettySize=auto;html=1;" edge="1" parent="1" source="9ttiAXNQikp2hNH5S8NI-213" target="9ttiAXNQikp2hNH5S8NI-517">
          <mxGeometry relative="1" as="geometry" />
        </mxCell>
        <mxCell id="9ttiAXNQikp2hNH5S8NI-531" value="" style="edgeStyle=orthogonalEdgeStyle;rounded=0;orthogonalLoop=1;jettySize=auto;html=1;" edge="1" parent="1" source="9ttiAXNQikp2hNH5S8NI-213" target="9ttiAXNQikp2hNH5S8NI-196">
          <mxGeometry relative="1" as="geometry" />
        </mxCell>
        <mxCell id="9ttiAXNQikp2hNH5S8NI-602" value="" style="edgeStyle=orthogonalEdgeStyle;rounded=0;orthogonalLoop=1;jettySize=auto;html=1;" edge="1" parent="1" source="9ttiAXNQikp2hNH5S8NI-213">
          <mxGeometry relative="1" as="geometry">
            <mxPoint x="-700" y="1020" as="targetPoint" />
            <Array as="points">
              <mxPoint x="-700" y="1170" />
              <mxPoint x="-700" y="1170" />
            </Array>
          </mxGeometry>
        </mxCell>
        <mxCell id="9ttiAXNQikp2hNH5S8NI-213" value="&lt;div&gt;&lt;br&gt;&lt;/div&gt;User Memilih menu 6" style="rhombus;whiteSpace=wrap;html=1;rounded=0;" vertex="1" parent="1">
          <mxGeometry x="-509" y="1120" width="100" height="100" as="geometry" />
        </mxCell>
        <mxCell id="9ttiAXNQikp2hNH5S8NI-219" value="Ya" style="text;html=1;align=center;verticalAlign=middle;resizable=0;points=[];autosize=1;strokeColor=none;fillColor=none;" vertex="1" parent="1">
          <mxGeometry x="-415" y="1140" width="40" height="30" as="geometry" />
        </mxCell>
        <mxCell id="9ttiAXNQikp2hNH5S8NI-220" value="Tidak" style="text;html=1;align=center;verticalAlign=middle;resizable=0;points=[];autosize=1;strokeColor=none;fillColor=none;" vertex="1" parent="1">
          <mxGeometry x="-575" y="1130" width="50" height="30" as="geometry" />
        </mxCell>
        <mxCell id="9ttiAXNQikp2hNH5S8NI-225" value="" style="edgeStyle=orthogonalEdgeStyle;rounded=0;orthogonalLoop=1;jettySize=auto;html=1;entryX=1;entryY=0.5;entryDx=0;entryDy=0;" edge="1" parent="1">
          <mxGeometry relative="1" as="geometry">
            <mxPoint x="-250" y="760" as="sourcePoint" />
            <mxPoint x="-400" y="390" as="targetPoint" />
            <Array as="points">
              <mxPoint x="-108" y="760" />
              <mxPoint x="-108" y="390" />
            </Array>
          </mxGeometry>
        </mxCell>
        <mxCell id="9ttiAXNQikp2hNH5S8NI-228" value="" style="endArrow=none;html=1;rounded=0;exitX=1;exitY=0.5;exitDx=0;exitDy=0;" edge="1" parent="1">
          <mxGeometry width="50" height="50" relative="1" as="geometry">
            <mxPoint x="-250" y="890" as="sourcePoint" />
            <mxPoint x="-109" y="890" as="targetPoint" />
          </mxGeometry>
        </mxCell>
        <mxCell id="9ttiAXNQikp2hNH5S8NI-229" value="" style="endArrow=none;html=1;rounded=0;" edge="1" parent="1">
          <mxGeometry width="50" height="50" relative="1" as="geometry">
            <mxPoint x="-108" y="890" as="sourcePoint" />
            <mxPoint x="-108" y="750" as="targetPoint" />
          </mxGeometry>
        </mxCell>
        <mxCell id="9ttiAXNQikp2hNH5S8NI-361" value="F" style="ellipse;whiteSpace=wrap;html=1;aspect=fixed;" vertex="1" parent="1">
          <mxGeometry x="5501.5" y="15" width="77" height="77" as="geometry" />
        </mxCell>
        <mxCell id="9ttiAXNQikp2hNH5S8NI-362" value="&lt;font style=&quot;font-size: 24px;&quot;&gt;&lt;b style=&quot;&quot;&gt;MENU RESTORE BARANG DARI&lt;/b&gt;&lt;/font&gt;&lt;div&gt;&lt;font style=&quot;font-size: 24px;&quot;&gt;&lt;b style=&quot;&quot;&gt;&amp;nbsp;RECYCLE BIN&lt;/b&gt;&lt;/font&gt;&lt;/div&gt;" style="text;html=1;align=center;verticalAlign=middle;resizable=0;points=[];autosize=1;strokeColor=none;fillColor=none;" vertex="1" parent="1">
          <mxGeometry x="5100" y="5" width="390" height="70" as="geometry" />
        </mxCell>
        <mxCell id="9ttiAXNQikp2hNH5S8NI-391" value="" style="edgeStyle=orthogonalEdgeStyle;rounded=0;orthogonalLoop=1;jettySize=auto;html=1;" edge="1" parent="1" target="9ttiAXNQikp2hNH5S8NI-395">
          <mxGeometry relative="1" as="geometry">
            <mxPoint x="5540" y="95.75" as="sourcePoint" />
          </mxGeometry>
        </mxCell>
        <mxCell id="9ttiAXNQikp2hNH5S8NI-392" value="" style="edgeStyle=orthogonalEdgeStyle;rounded=0;orthogonalLoop=1;jettySize=auto;html=1;" edge="1" parent="1">
          <mxGeometry relative="1" as="geometry">
            <mxPoint x="5540" y="185.75" as="sourcePoint" />
            <mxPoint x="5540" y="215.75" as="targetPoint" />
          </mxGeometry>
        </mxCell>
        <mxCell id="9ttiAXNQikp2hNH5S8NI-393" value="" style="edgeStyle=orthogonalEdgeStyle;rounded=0;orthogonalLoop=1;jettySize=auto;html=1;" edge="1" parent="1" source="9ttiAXNQikp2hNH5S8NI-394" target="9ttiAXNQikp2hNH5S8NI-400">
          <mxGeometry relative="1" as="geometry" />
        </mxCell>
        <mxCell id="9ttiAXNQikp2hNH5S8NI-394" value="Barang berhasil dipulihkan ke Daftar barang" style="rounded=1;whiteSpace=wrap;html=1;" vertex="1" parent="1">
          <mxGeometry x="5480" y="345.75" width="120" height="60" as="geometry" />
        </mxCell>
        <mxCell id="9ttiAXNQikp2hNH5S8NI-395" value="Menampilan Barang yang ingin di Restore&lt;div&gt;dari Recycle bin&lt;/div&gt;" style="rounded=1;whiteSpace=wrap;html=1;" vertex="1" parent="1">
          <mxGeometry x="5480" y="125.75" width="120" height="60" as="geometry" />
        </mxCell>
        <mxCell id="9ttiAXNQikp2hNH5S8NI-397" value="" style="edgeStyle=orthogonalEdgeStyle;rounded=0;orthogonalLoop=1;jettySize=auto;html=1;" edge="1" parent="1" source="9ttiAXNQikp2hNH5S8NI-399" target="9ttiAXNQikp2hNH5S8NI-394">
          <mxGeometry relative="1" as="geometry" />
        </mxCell>
        <mxCell id="9ttiAXNQikp2hNH5S8NI-406" value="" style="edgeStyle=orthogonalEdgeStyle;rounded=0;orthogonalLoop=1;jettySize=auto;html=1;" edge="1" parent="1" source="9ttiAXNQikp2hNH5S8NI-399" target="9ttiAXNQikp2hNH5S8NI-404">
          <mxGeometry relative="1" as="geometry" />
        </mxCell>
        <mxCell id="9ttiAXNQikp2hNH5S8NI-399" value="Memasukkan Barang yang ingin di pulihkan" style="rhombus;whiteSpace=wrap;html=1;" vertex="1" parent="1">
          <mxGeometry x="5495" y="215.75" width="90" height="95" as="geometry" />
        </mxCell>
        <mxCell id="9ttiAXNQikp2hNH5S8NI-400" value="Kembali ke Menu Utama" style="rounded=1;whiteSpace=wrap;html=1;" vertex="1" parent="1">
          <mxGeometry x="5480" y="447" width="120" height="60" as="geometry" />
        </mxCell>
        <mxCell id="9ttiAXNQikp2hNH5S8NI-401" value="Tidak" style="text;html=1;align=center;verticalAlign=middle;resizable=0;points=[];autosize=1;strokeColor=none;fillColor=none;" vertex="1" parent="1">
          <mxGeometry x="5415" y="230.75" width="50" height="30" as="geometry" />
        </mxCell>
        <mxCell id="9ttiAXNQikp2hNH5S8NI-402" value="Ya" style="text;html=1;align=center;verticalAlign=middle;resizable=0;points=[];autosize=1;strokeColor=none;fillColor=none;" vertex="1" parent="1">
          <mxGeometry x="5540" y="303.75" width="40" height="30" as="geometry" />
        </mxCell>
        <mxCell id="9ttiAXNQikp2hNH5S8NI-403" value="" style="edgeStyle=orthogonalEdgeStyle;rounded=0;orthogonalLoop=1;jettySize=auto;html=1;entryX=0;entryY=0.75;entryDx=0;entryDy=0;" edge="1" parent="1" source="9ttiAXNQikp2hNH5S8NI-404">
          <mxGeometry relative="1" as="geometry">
            <mxPoint x="5480" y="490.5" as="targetPoint" />
            <Array as="points">
              <mxPoint x="5320" y="490.5" />
            </Array>
          </mxGeometry>
        </mxCell>
        <mxCell id="9ttiAXNQikp2hNH5S8NI-404" value="Nomor Tidak Valid!" style="rounded=1;whiteSpace=wrap;html=1;" vertex="1" parent="1">
          <mxGeometry x="5260" y="232.63" width="120" height="60" as="geometry" />
        </mxCell>
        <mxCell id="9ttiAXNQikp2hNH5S8NI-588" value="" style="edgeStyle=orthogonalEdgeStyle;rounded=0;orthogonalLoop=1;jettySize=auto;html=1;" edge="1" parent="1" source="9ttiAXNQikp2hNH5S8NI-410" target="9ttiAXNQikp2hNH5S8NI-183">
          <mxGeometry relative="1" as="geometry" />
        </mxCell>
        <mxCell id="9ttiAXNQikp2hNH5S8NI-410" value="Menampilkan Halaman Toko Bahagia" style="rounded=1;whiteSpace=wrap;html=1;" vertex="1" parent="1">
          <mxGeometry x="-519" y="360" width="120" height="60" as="geometry" />
        </mxCell>
        <mxCell id="9ttiAXNQikp2hNH5S8NI-411" value="Hanya admin yang bisa menambah Barang" style="rounded=1;whiteSpace=wrap;html=1;" vertex="1" parent="1">
          <mxGeometry x="-370" y="730" width="120" height="60" as="geometry" />
        </mxCell>
        <mxCell id="9ttiAXNQikp2hNH5S8NI-413" value="Hanya admin yang bisa Menhapus Barang" style="rounded=1;whiteSpace=wrap;html=1;" vertex="1" parent="1">
          <mxGeometry x="-370" y="860" width="120" height="60" as="geometry" />
        </mxCell>
        <mxCell id="9ttiAXNQikp2hNH5S8NI-419" value="" style="edgeStyle=orthogonalEdgeStyle;rounded=0;orthogonalLoop=1;jettySize=auto;html=1;" edge="1" parent="1" source="9ttiAXNQikp2hNH5S8NI-420">
          <mxGeometry relative="1" as="geometry">
            <mxPoint x="1305" y="150" as="targetPoint" />
          </mxGeometry>
        </mxCell>
        <mxCell id="9ttiAXNQikp2hNH5S8NI-420" value="A" style="ellipse;whiteSpace=wrap;html=1;aspect=fixed;" vertex="1" parent="1">
          <mxGeometry x="1275" y="50" width="60" height="60" as="geometry" />
        </mxCell>
        <mxCell id="9ttiAXNQikp2hNH5S8NI-424" value="&lt;b style=&quot;color: rgb(0, 0, 0); text-wrap-mode: nowrap; text-align: center; background-color: rgb(251, 251, 251);&quot;&gt;&lt;font style=&quot;font-size: 24px;&quot;&gt;MENU TAMPILKAN DAFTAR&lt;/font&gt;&lt;/b&gt;&lt;div&gt;&lt;b style=&quot;color: rgb(0, 0, 0); text-wrap-mode: nowrap; text-align: center; background-color: rgb(251, 251, 251);&quot;&gt;&lt;font style=&quot;font-size: 24px;&quot;&gt;BARANG&lt;/font&gt;&lt;/b&gt;&lt;/div&gt;" style="text;whiteSpace=wrap;html=1;" vertex="1" parent="1">
          <mxGeometry x="890" y="10" width="320" height="50" as="geometry" />
        </mxCell>
        <mxCell id="9ttiAXNQikp2hNH5S8NI-425" value="" style="edgeStyle=orthogonalEdgeStyle;rounded=0;orthogonalLoop=1;jettySize=auto;html=1;" edge="1" parent="1" source="9ttiAXNQikp2hNH5S8NI-426">
          <mxGeometry relative="1" as="geometry">
            <mxPoint x="2220" y="125" as="targetPoint" />
          </mxGeometry>
        </mxCell>
        <mxCell id="9ttiAXNQikp2hNH5S8NI-426" value="B" style="ellipse;whiteSpace=wrap;html=1;aspect=fixed;" vertex="1" parent="1">
          <mxGeometry x="2190" y="25" width="60" height="60" as="geometry" />
        </mxCell>
        <mxCell id="9ttiAXNQikp2hNH5S8NI-427" value="" style="edgeStyle=orthogonalEdgeStyle;rounded=0;orthogonalLoop=1;jettySize=auto;html=1;" edge="1" parent="1">
          <mxGeometry relative="1" as="geometry">
            <mxPoint x="2220" y="231" as="targetPoint" />
            <mxPoint x="2220" y="175" as="sourcePoint" />
          </mxGeometry>
        </mxCell>
        <mxCell id="9ttiAXNQikp2hNH5S8NI-429" value="&lt;b style=&quot;color: rgb(0, 0, 0); text-wrap-mode: nowrap; text-align: center; background-color: rgb(251, 251, 251);&quot;&gt;&lt;font style=&quot;font-size: 24px;&quot;&gt;MENU BELI BARANG&lt;/font&gt;&lt;/b&gt;" style="text;whiteSpace=wrap;html=1;" vertex="1" parent="1">
          <mxGeometry x="1790" y="30" width="430" height="45" as="geometry" />
        </mxCell>
        <mxCell id="9ttiAXNQikp2hNH5S8NI-430" value="" style="edgeStyle=orthogonalEdgeStyle;rounded=0;orthogonalLoop=1;jettySize=auto;html=1;" edge="1" parent="1">
          <mxGeometry relative="1" as="geometry">
            <mxPoint x="2220" y="287.5" as="sourcePoint" />
            <mxPoint x="2220" y="335" as="targetPoint" />
          </mxGeometry>
        </mxCell>
        <mxCell id="9ttiAXNQikp2hNH5S8NI-432" value="" style="edgeStyle=orthogonalEdgeStyle;rounded=0;orthogonalLoop=1;jettySize=auto;html=1;" edge="1" parent="1">
          <mxGeometry relative="1" as="geometry">
            <mxPoint x="2220" y="395" as="sourcePoint" />
            <mxPoint x="2220" y="458.75" as="targetPoint" />
          </mxGeometry>
        </mxCell>
        <mxCell id="9ttiAXNQikp2hNH5S8NI-434" value="" style="edgeStyle=orthogonalEdgeStyle;rounded=0;orthogonalLoop=1;jettySize=auto;html=1;" edge="1" parent="1">
          <mxGeometry relative="1" as="geometry">
            <mxPoint x="2220" y="565" as="targetPoint" />
            <mxPoint x="2220" y="518.75" as="sourcePoint" />
          </mxGeometry>
        </mxCell>
        <mxCell id="9ttiAXNQikp2hNH5S8NI-436" value="" style="edgeStyle=orthogonalEdgeStyle;rounded=0;orthogonalLoop=1;jettySize=auto;html=1;" edge="1" parent="1" source="9ttiAXNQikp2hNH5S8NI-437" target="9ttiAXNQikp2hNH5S8NI-444">
          <mxGeometry relative="1" as="geometry" />
        </mxCell>
        <mxCell id="9ttiAXNQikp2hNH5S8NI-437" value="Menampilkan Nota Pembelian" style="rounded=1;whiteSpace=wrap;html=1;" vertex="1" parent="1">
          <mxGeometry x="2160" y="730" width="120" height="60" as="geometry" />
        </mxCell>
        <mxCell id="9ttiAXNQikp2hNH5S8NI-438" value="YA" style="text;html=1;align=center;verticalAlign=middle;resizable=0;points=[];autosize=1;strokeColor=none;fillColor=none;" vertex="1" parent="1">
          <mxGeometry x="2220" y="638" width="40" height="30" as="geometry" />
        </mxCell>
        <mxCell id="9ttiAXNQikp2hNH5S8NI-439" value="" style="edgeStyle=orthogonalEdgeStyle;rounded=0;orthogonalLoop=1;jettySize=auto;html=1;" edge="1" parent="1" source="9ttiAXNQikp2hNH5S8NI-441" target="9ttiAXNQikp2hNH5S8NI-437">
          <mxGeometry relative="1" as="geometry" />
        </mxCell>
        <mxCell id="9ttiAXNQikp2hNH5S8NI-440" value="" style="edgeStyle=orthogonalEdgeStyle;rounded=0;orthogonalLoop=1;jettySize=auto;html=1;" edge="1" parent="1" source="9ttiAXNQikp2hNH5S8NI-441">
          <mxGeometry relative="1" as="geometry">
            <mxPoint x="2160" y="150" as="targetPoint" />
            <Array as="points">
              <mxPoint x="1981" y="625" />
              <mxPoint x="1981" y="150" />
            </Array>
          </mxGeometry>
        </mxCell>
        <mxCell id="9ttiAXNQikp2hNH5S8NI-441" value="&lt;br&gt;&lt;span style=&quot;color: rgb(0, 0, 0); font-family: Helvetica; font-size: 12px; font-style: normal; font-variant-ligatures: normal; font-variant-caps: normal; font-weight: 400; letter-spacing: normal; orphans: 2; text-indent: 0px; text-transform: none; widows: 2; word-spacing: 0px; -webkit-text-stroke-width: 0px; white-space: normal; background-color: rgb(251, 251, 251); text-decoration-thickness: initial; text-decoration-style: initial; text-decoration-color: initial; float: none; display: inline !important;&quot;&gt;Menampilkan &quot;Ingin Membeli barang lain? (ya/tidak)&quot;&lt;/span&gt;&lt;div&gt;&lt;br/&gt;&lt;/div&gt;" style="rhombus;whiteSpace=wrap;html=1;align=center;" vertex="1" parent="1">
          <mxGeometry x="2147.5" y="561.25" width="145" height="130" as="geometry" />
        </mxCell>
        <mxCell id="9ttiAXNQikp2hNH5S8NI-442" value="Tidak" style="text;html=1;align=center;verticalAlign=middle;resizable=0;points=[];autosize=1;strokeColor=none;fillColor=none;" vertex="1" parent="1">
          <mxGeometry x="2215" y="688" width="50" height="30" as="geometry" />
        </mxCell>
        <mxCell id="9ttiAXNQikp2hNH5S8NI-443" value="Ya" style="text;html=1;align=center;verticalAlign=middle;resizable=0;points=[];autosize=1;strokeColor=none;fillColor=none;" vertex="1" parent="1">
          <mxGeometry x="2050" y="598" width="40" height="30" as="geometry" />
        </mxCell>
        <mxCell id="9ttiAXNQikp2hNH5S8NI-444" value="Kembali ke Menu Utama" style="rounded=1;whiteSpace=wrap;html=1;" vertex="1" parent="1">
          <mxGeometry x="2160" y="835" width="120" height="60" as="geometry" />
        </mxCell>
        <mxCell id="9ttiAXNQikp2hNH5S8NI-445" value="" style="edgeStyle=orthogonalEdgeStyle;rounded=0;orthogonalLoop=1;jettySize=auto;html=1;" edge="1" parent="1" source="9ttiAXNQikp2hNH5S8NI-446" target="9ttiAXNQikp2hNH5S8NI-449">
          <mxGeometry relative="1" as="geometry" />
        </mxCell>
        <mxCell id="9ttiAXNQikp2hNH5S8NI-446" value="C" style="ellipse;whiteSpace=wrap;html=1;aspect=fixed;" vertex="1" parent="1">
          <mxGeometry x="2995" y="10" width="60" height="60" as="geometry" />
        </mxCell>
        <mxCell id="9ttiAXNQikp2hNH5S8NI-447" value="&lt;b&gt;&lt;font style=&quot;font-size: 24px;&quot;&gt;MENU TAMBAH BARANG&lt;/font&gt;&lt;/b&gt;" style="text;html=1;align=center;verticalAlign=middle;resizable=0;points=[];autosize=1;strokeColor=none;fillColor=none;" vertex="1" parent="1">
          <mxGeometry x="2610" y="20" width="320" height="40" as="geometry" />
        </mxCell>
        <mxCell id="9ttiAXNQikp2hNH5S8NI-448" value="" style="edgeStyle=orthogonalEdgeStyle;rounded=0;orthogonalLoop=1;jettySize=auto;html=1;" edge="1" parent="1" source="9ttiAXNQikp2hNH5S8NI-449">
          <mxGeometry relative="1" as="geometry">
            <mxPoint x="3025" y="213.75" as="targetPoint" />
          </mxGeometry>
        </mxCell>
        <mxCell id="9ttiAXNQikp2hNH5S8NI-449" value="Masukkan nama barang baru" style="rounded=1;whiteSpace=wrap;html=1;" vertex="1" parent="1">
          <mxGeometry x="2965" y="110" width="120" height="60" as="geometry" />
        </mxCell>
        <mxCell id="9ttiAXNQikp2hNH5S8NI-452" value="" style="edgeStyle=orthogonalEdgeStyle;rounded=0;orthogonalLoop=1;jettySize=auto;html=1;" edge="1" parent="1">
          <mxGeometry relative="1" as="geometry">
            <mxPoint x="3025" y="273.75" as="sourcePoint" />
            <mxPoint x="3025.0588235294126" y="326.75" as="targetPoint" />
          </mxGeometry>
        </mxCell>
        <mxCell id="9ttiAXNQikp2hNH5S8NI-454" value="" style="edgeStyle=orthogonalEdgeStyle;rounded=0;orthogonalLoop=1;jettySize=auto;html=1;" edge="1" parent="1" target="9ttiAXNQikp2hNH5S8NI-457">
          <mxGeometry relative="1" as="geometry">
            <mxPoint x="3025.0588235294126" y="386.75" as="sourcePoint" />
          </mxGeometry>
        </mxCell>
        <mxCell id="9ttiAXNQikp2hNH5S8NI-456" value="" style="edgeStyle=orthogonalEdgeStyle;rounded=0;orthogonalLoop=1;jettySize=auto;html=1;" edge="1" parent="1" source="9ttiAXNQikp2hNH5S8NI-457" target="9ttiAXNQikp2hNH5S8NI-458">
          <mxGeometry relative="1" as="geometry" />
        </mxCell>
        <mxCell id="9ttiAXNQikp2hNH5S8NI-457" value="Barang baru berhasil ditambahkan ke Daftar barang" style="rounded=1;whiteSpace=wrap;html=1;" vertex="1" parent="1">
          <mxGeometry x="2965" y="443.76" width="120" height="60" as="geometry" />
        </mxCell>
        <mxCell id="9ttiAXNQikp2hNH5S8NI-458" value="Kembali ke Menu Utama" style="rounded=1;whiteSpace=wrap;html=1;" vertex="1" parent="1">
          <mxGeometry x="2965" y="530" width="120" height="60" as="geometry" />
        </mxCell>
        <mxCell id="9ttiAXNQikp2hNH5S8NI-459" value="" style="edgeStyle=orthogonalEdgeStyle;rounded=0;orthogonalLoop=1;jettySize=auto;html=1;" edge="1" parent="1" source="9ttiAXNQikp2hNH5S8NI-460" target="9ttiAXNQikp2hNH5S8NI-465">
          <mxGeometry relative="1" as="geometry" />
        </mxCell>
        <mxCell id="9ttiAXNQikp2hNH5S8NI-460" value="D" style="ellipse;whiteSpace=wrap;html=1;aspect=fixed;" vertex="1" parent="1">
          <mxGeometry x="3800" y="32.50999999999999" width="60" height="60" as="geometry" />
        </mxCell>
        <mxCell id="9ttiAXNQikp2hNH5S8NI-461" value="&lt;b style=&quot;forced-color-adjust: none; color: rgb(0, 0, 0); font-family: Helvetica; font-size: 12px; font-style: normal; font-variant-ligatures: normal; font-variant-caps: normal; letter-spacing: normal; orphans: 2; text-align: center; text-indent: 0px; text-transform: none; widows: 2; word-spacing: 0px; -webkit-text-stroke-width: 0px; white-space: nowrap; background-color: rgb(251, 251, 251); text-decoration-thickness: initial; text-decoration-style: initial; text-decoration-color: initial;&quot;&gt;&lt;font style=&quot;forced-color-adjust: none; font-size: 24px;&quot;&gt;MENU HAPUS BARANG&lt;/font&gt;&lt;/b&gt;" style="text;whiteSpace=wrap;html=1;" vertex="1" parent="1">
          <mxGeometry x="3470" y="7.509999999999991" width="300" height="50" as="geometry" />
        </mxCell>
        <mxCell id="9ttiAXNQikp2hNH5S8NI-462" value="" style="edgeStyle=orthogonalEdgeStyle;rounded=0;orthogonalLoop=1;jettySize=auto;html=1;" edge="1" parent="1">
          <mxGeometry relative="1" as="geometry">
            <mxPoint x="3830" y="182.51" as="sourcePoint" />
            <mxPoint x="3830" y="212.51" as="targetPoint" />
          </mxGeometry>
        </mxCell>
        <mxCell id="9ttiAXNQikp2hNH5S8NI-463" value="" style="edgeStyle=orthogonalEdgeStyle;rounded=0;orthogonalLoop=1;jettySize=auto;html=1;" edge="1" parent="1" source="9ttiAXNQikp2hNH5S8NI-464" target="9ttiAXNQikp2hNH5S8NI-471">
          <mxGeometry relative="1" as="geometry" />
        </mxCell>
        <mxCell id="9ttiAXNQikp2hNH5S8NI-464" value="Barang berhasil dihapus dan dipindahkan ke Recycle Bin" style="rounded=1;whiteSpace=wrap;html=1;" vertex="1" parent="1">
          <mxGeometry x="3770" y="342.51" width="120" height="60" as="geometry" />
        </mxCell>
        <mxCell id="9ttiAXNQikp2hNH5S8NI-465" value="Menampilkan Daftar Barang Toko" style="rounded=1;whiteSpace=wrap;html=1;" vertex="1" parent="1">
          <mxGeometry x="3770" y="122.50999999999999" width="120" height="60" as="geometry" />
        </mxCell>
        <mxCell id="9ttiAXNQikp2hNH5S8NI-466" value="" style="edgeStyle=orthogonalEdgeStyle;rounded=0;orthogonalLoop=1;jettySize=auto;html=1;entryX=0;entryY=0.75;entryDx=0;entryDy=0;" edge="1" parent="1" source="9ttiAXNQikp2hNH5S8NI-467" target="9ttiAXNQikp2hNH5S8NI-471">
          <mxGeometry relative="1" as="geometry">
            <mxPoint x="3610" y="477.51" as="targetPoint" />
            <Array as="points">
              <mxPoint x="3610" y="488.51" />
            </Array>
          </mxGeometry>
        </mxCell>
        <mxCell id="9ttiAXNQikp2hNH5S8NI-467" value="Nomor Tidak Valid!" style="rounded=1;whiteSpace=wrap;html=1;" vertex="1" parent="1">
          <mxGeometry x="3550" y="230.01" width="120" height="60" as="geometry" />
        </mxCell>
        <mxCell id="9ttiAXNQikp2hNH5S8NI-468" value="" style="edgeStyle=orthogonalEdgeStyle;rounded=0;orthogonalLoop=1;jettySize=auto;html=1;" edge="1" parent="1" source="9ttiAXNQikp2hNH5S8NI-470" target="9ttiAXNQikp2hNH5S8NI-464">
          <mxGeometry relative="1" as="geometry" />
        </mxCell>
        <mxCell id="9ttiAXNQikp2hNH5S8NI-469" value="" style="edgeStyle=orthogonalEdgeStyle;rounded=0;orthogonalLoop=1;jettySize=auto;html=1;" edge="1" parent="1" source="9ttiAXNQikp2hNH5S8NI-470" target="9ttiAXNQikp2hNH5S8NI-467">
          <mxGeometry relative="1" as="geometry" />
        </mxCell>
        <mxCell id="9ttiAXNQikp2hNH5S8NI-470" value="Masukkan Index barang yang akan dihapus" style="rhombus;whiteSpace=wrap;html=1;" vertex="1" parent="1">
          <mxGeometry x="3785" y="212.51" width="90" height="95" as="geometry" />
        </mxCell>
        <mxCell id="9ttiAXNQikp2hNH5S8NI-471" value="Kembali ke Menu Utama" style="rounded=1;whiteSpace=wrap;html=1;" vertex="1" parent="1">
          <mxGeometry x="3770" y="443.76" width="120" height="60" as="geometry" />
        </mxCell>
        <mxCell id="9ttiAXNQikp2hNH5S8NI-472" value="Tidak" style="text;html=1;align=center;verticalAlign=middle;resizable=0;points=[];autosize=1;strokeColor=none;fillColor=none;" vertex="1" parent="1">
          <mxGeometry x="3705" y="227.51" width="50" height="30" as="geometry" />
        </mxCell>
        <mxCell id="9ttiAXNQikp2hNH5S8NI-473" value="Ya" style="text;html=1;align=center;verticalAlign=middle;resizable=0;points=[];autosize=1;strokeColor=none;fillColor=none;" vertex="1" parent="1">
          <mxGeometry x="3830" y="300.51" width="40" height="30" as="geometry" />
        </mxCell>
        <mxCell id="9ttiAXNQikp2hNH5S8NI-475" value="Menampilkan Halaman Toko Bahagia" style="rounded=1;whiteSpace=wrap;html=1;" vertex="1" parent="1">
          <mxGeometry x="350" y="353.13" width="120" height="60" as="geometry" />
        </mxCell>
        <mxCell id="9ttiAXNQikp2hNH5S8NI-541" value="" style="edgeStyle=orthogonalEdgeStyle;rounded=0;orthogonalLoop=1;jettySize=auto;html=1;" edge="1" parent="1" source="9ttiAXNQikp2hNH5S8NI-476" target="9ttiAXNQikp2hNH5S8NI-540">
          <mxGeometry relative="1" as="geometry" />
        </mxCell>
        <mxCell id="9ttiAXNQikp2hNH5S8NI-476" value="&#xa;&lt;span style=&quot;color: rgb(0, 0, 0); font-family: Helvetica; font-size: 12px; font-style: normal; font-variant-ligatures: normal; font-variant-caps: normal; font-weight: 400; letter-spacing: normal; orphans: 2; text-align: center; text-indent: 0px; text-transform: none; widows: 2; word-spacing: 0px; -webkit-text-stroke-width: 0px; white-space: normal; background-color: rgb(251, 251, 251); text-decoration-thickness: initial; text-decoration-style: initial; text-decoration-color: initial; display: inline !important; float: none;&quot;&gt;Menampilkan Daftar Barang Toko&lt;/span&gt;&#xa;&#xa;" style="rounded=1;whiteSpace=wrap;html=1;" vertex="1" parent="1">
          <mxGeometry x="1245" y="153.75" width="120" height="60" as="geometry" />
        </mxCell>
        <mxCell id="9ttiAXNQikp2hNH5S8NI-477" value="Menampilkan Daftar barang" style="rounded=1;whiteSpace=wrap;html=1;" vertex="1" parent="1">
          <mxGeometry x="2165" y="125" width="120" height="60" as="geometry" />
        </mxCell>
        <mxCell id="9ttiAXNQikp2hNH5S8NI-480" value="" style="edgeStyle=orthogonalEdgeStyle;rounded=0;orthogonalLoop=1;jettySize=auto;html=1;" edge="1" parent="1" source="9ttiAXNQikp2hNH5S8NI-478" target="9ttiAXNQikp2hNH5S8NI-479">
          <mxGeometry relative="1" as="geometry" />
        </mxCell>
        <mxCell id="9ttiAXNQikp2hNH5S8NI-478" value="Menampilkan &quot;Masukkan index barang yang ingin dibeli&quot;" style="rhombus;whiteSpace=wrap;html=1;" vertex="1" parent="1">
          <mxGeometry x="2180" y="335" width="80" height="80" as="geometry" />
        </mxCell>
        <mxCell id="9ttiAXNQikp2hNH5S8NI-479" value="Masukkan angka yang valid!" style="rounded=1;whiteSpace=wrap;html=1;" vertex="1" parent="1">
          <mxGeometry x="2360" y="345" width="120" height="60" as="geometry" />
        </mxCell>
        <mxCell id="9ttiAXNQikp2hNH5S8NI-481" value="Tidak" style="text;html=1;align=center;verticalAlign=middle;resizable=0;points=[];autosize=1;strokeColor=none;fillColor=none;" vertex="1" parent="1">
          <mxGeometry x="2275" y="348" width="50" height="30" as="geometry" />
        </mxCell>
        <mxCell id="9ttiAXNQikp2hNH5S8NI-482" value="Ya" style="text;html=1;align=center;verticalAlign=middle;resizable=0;points=[];autosize=1;strokeColor=none;fillColor=none;" vertex="1" parent="1">
          <mxGeometry x="2225" y="415" width="40" height="30" as="geometry" />
        </mxCell>
        <mxCell id="9ttiAXNQikp2hNH5S8NI-485" value="" style="edgeStyle=orthogonalEdgeStyle;rounded=0;orthogonalLoop=1;jettySize=auto;html=1;" edge="1" parent="1" source="9ttiAXNQikp2hNH5S8NI-483" target="9ttiAXNQikp2hNH5S8NI-484">
          <mxGeometry relative="1" as="geometry" />
        </mxCell>
        <mxCell id="9ttiAXNQikp2hNH5S8NI-483" value="Menampilkan &quot;Harga Daftar Toko&quot;" style="rhombus;whiteSpace=wrap;html=1;" vertex="1" parent="1">
          <mxGeometry x="2180" y="230.01" width="80" height="80" as="geometry" />
        </mxCell>
        <mxCell id="9ttiAXNQikp2hNH5S8NI-484" value="Nomor tidak valid! Silahkan masukkan index yang benar" style="rounded=1;whiteSpace=wrap;html=1;" vertex="1" parent="1">
          <mxGeometry x="2360" y="240" width="120" height="60" as="geometry" />
        </mxCell>
        <mxCell id="9ttiAXNQikp2hNH5S8NI-486" value="Tidak" style="text;html=1;align=center;verticalAlign=middle;resizable=0;points=[];autosize=1;strokeColor=none;fillColor=none;" vertex="1" parent="1">
          <mxGeometry x="2275" y="241.25" width="50" height="30" as="geometry" />
        </mxCell>
        <mxCell id="9ttiAXNQikp2hNH5S8NI-487" value="Ya" style="text;html=1;align=center;verticalAlign=middle;resizable=0;points=[];autosize=1;strokeColor=none;fillColor=none;" vertex="1" parent="1">
          <mxGeometry x="2220" y="303.75" width="40" height="30" as="geometry" />
        </mxCell>
        <mxCell id="9ttiAXNQikp2hNH5S8NI-490" value="" style="edgeStyle=orthogonalEdgeStyle;rounded=0;orthogonalLoop=1;jettySize=auto;html=1;" edge="1" parent="1" source="9ttiAXNQikp2hNH5S8NI-488" target="9ttiAXNQikp2hNH5S8NI-489">
          <mxGeometry relative="1" as="geometry" />
        </mxCell>
        <mxCell id="9ttiAXNQikp2hNH5S8NI-488" value="Menampilkan &quot;Banyak barang yang ingin dbeli&quot;" style="rhombus;whiteSpace=wrap;html=1;" vertex="1" parent="1">
          <mxGeometry x="2180" y="458.75" width="80" height="80" as="geometry" />
        </mxCell>
        <mxCell id="9ttiAXNQikp2hNH5S8NI-489" value="Menampilkan stock tidak cukup" style="rounded=1;whiteSpace=wrap;html=1;" vertex="1" parent="1">
          <mxGeometry x="2360" y="468.75" width="120" height="60" as="geometry" />
        </mxCell>
        <mxCell id="9ttiAXNQikp2hNH5S8NI-491" value="Tidak" style="text;html=1;align=center;verticalAlign=middle;resizable=0;points=[];autosize=1;strokeColor=none;fillColor=none;" vertex="1" parent="1">
          <mxGeometry x="2275" y="460" width="50" height="30" as="geometry" />
        </mxCell>
        <mxCell id="9ttiAXNQikp2hNH5S8NI-492" value="Ya" style="text;html=1;align=center;verticalAlign=middle;resizable=0;points=[];autosize=1;strokeColor=none;fillColor=none;" vertex="1" parent="1">
          <mxGeometry x="2220" y="528" width="40" height="30" as="geometry" />
        </mxCell>
        <mxCell id="9ttiAXNQikp2hNH5S8NI-561" value="" style="edgeStyle=orthogonalEdgeStyle;rounded=0;orthogonalLoop=1;jettySize=auto;html=1;entryX=0;entryY=0.5;entryDx=0;entryDy=0;" edge="1" parent="1" source="9ttiAXNQikp2hNH5S8NI-493" target="9ttiAXNQikp2hNH5S8NI-494">
          <mxGeometry relative="1" as="geometry">
            <mxPoint x="3185" y="250.01" as="targetPoint" />
          </mxGeometry>
        </mxCell>
        <mxCell id="9ttiAXNQikp2hNH5S8NI-493" value="Input Harga Barang(int)" style="rhombus;whiteSpace=wrap;html=1;" vertex="1" parent="1">
          <mxGeometry x="2985" y="210.01" width="80" height="80" as="geometry" />
        </mxCell>
        <mxCell id="9ttiAXNQikp2hNH5S8NI-494" value="Menampilkan Silahkan masukkan harga yang valid" style="rounded=1;whiteSpace=wrap;html=1;" vertex="1" parent="1">
          <mxGeometry x="3190" y="220.01" width="120" height="60" as="geometry" />
        </mxCell>
        <mxCell id="9ttiAXNQikp2hNH5S8NI-501" value="" style="edgeStyle=orthogonalEdgeStyle;rounded=0;orthogonalLoop=1;jettySize=auto;html=1;" edge="1" parent="1" source="9ttiAXNQikp2hNH5S8NI-499" target="9ttiAXNQikp2hNH5S8NI-173">
          <mxGeometry relative="1" as="geometry" />
        </mxCell>
        <mxCell id="9ttiAXNQikp2hNH5S8NI-499" value="Start" style="strokeWidth=2;html=1;shape=mxgraph.flowchart.terminator;whiteSpace=wrap;" vertex="1" parent="1">
          <mxGeometry x="-510" y="20" width="100" height="60" as="geometry" />
        </mxCell>
        <mxCell id="9ttiAXNQikp2hNH5S8NI-502" value="End" style="strokeWidth=2;html=1;shape=mxgraph.flowchart.terminator;whiteSpace=wrap;" vertex="1" parent="1">
          <mxGeometry x="-509" y="1360" width="100" height="60" as="geometry" />
        </mxCell>
        <mxCell id="9ttiAXNQikp2hNH5S8NI-589" value="" style="edgeStyle=orthogonalEdgeStyle;rounded=0;orthogonalLoop=1;jettySize=auto;html=1;" edge="1" parent="1" source="9ttiAXNQikp2hNH5S8NI-506" target="9ttiAXNQikp2hNH5S8NI-410">
          <mxGeometry relative="1" as="geometry" />
        </mxCell>
        <mxCell id="9ttiAXNQikp2hNH5S8NI-506" value="Memasukkan ID&lt;div&gt;dan Password&lt;/div&gt;&lt;div&gt;User&lt;/div&gt;" style="rounded=1;whiteSpace=wrap;html=1;" vertex="1" parent="1">
          <mxGeometry x="-519" y="225" width="120" height="65" as="geometry" />
        </mxCell>
        <mxCell id="9ttiAXNQikp2hNH5S8NI-510" value="" style="edgeStyle=orthogonalEdgeStyle;rounded=0;orthogonalLoop=1;jettySize=auto;html=1;" edge="1" parent="1" source="9ttiAXNQikp2hNH5S8NI-509" target="AHnlYJfSwKm474h9auV9-1">
          <mxGeometry relative="1" as="geometry" />
        </mxCell>
        <mxCell id="9ttiAXNQikp2hNH5S8NI-509" value="Start" style="strokeWidth=2;html=1;shape=mxgraph.flowchart.terminator;whiteSpace=wrap;" vertex="1" parent="1">
          <mxGeometry x="355" y="10" width="110" height="60" as="geometry" />
        </mxCell>
        <mxCell id="9ttiAXNQikp2hNH5S8NI-511" value="End" style="strokeWidth=2;html=1;shape=mxgraph.flowchart.terminator;whiteSpace=wrap;" vertex="1" parent="1">
          <mxGeometry x="360" y="1360" width="100" height="60" as="geometry" />
        </mxCell>
        <mxCell id="9ttiAXNQikp2hNH5S8NI-515" value="" style="edgeStyle=orthogonalEdgeStyle;rounded=0;orthogonalLoop=1;jettySize=auto;html=1;" edge="1" parent="1" source="9ttiAXNQikp2hNH5S8NI-513" target="9ttiAXNQikp2hNH5S8NI-475">
          <mxGeometry relative="1" as="geometry" />
        </mxCell>
        <mxCell id="9ttiAXNQikp2hNH5S8NI-513" value="Memasukkan ID&lt;div&gt;dan Password&lt;/div&gt;&lt;div&gt;User&lt;/div&gt;" style="rounded=1;whiteSpace=wrap;html=1;" vertex="1" parent="1">
          <mxGeometry x="350" y="228.75" width="120" height="55" as="geometry" />
        </mxCell>
        <mxCell id="9ttiAXNQikp2hNH5S8NI-516" value="Hanya admin yang bisa Menampilkan Recycle bin" style="rounded=1;whiteSpace=wrap;html=1;" vertex="1" parent="1">
          <mxGeometry x="-370" y="990" width="120" height="60" as="geometry" />
        </mxCell>
        <mxCell id="9ttiAXNQikp2hNH5S8NI-517" value="Hanya admin yang bisa Merestore Barang" style="rounded=1;whiteSpace=wrap;html=1;" vertex="1" parent="1">
          <mxGeometry x="-370" y="1140" width="120" height="60" as="geometry" />
        </mxCell>
        <mxCell id="9ttiAXNQikp2hNH5S8NI-527" value="" style="endArrow=none;html=1;rounded=0;exitX=1;exitY=0.5;exitDx=0;exitDy=0;" edge="1" parent="1">
          <mxGeometry width="50" height="50" relative="1" as="geometry">
            <mxPoint x="-248" y="1019.41" as="sourcePoint" />
            <mxPoint x="-108" y="1019" as="targetPoint" />
          </mxGeometry>
        </mxCell>
        <mxCell id="9ttiAXNQikp2hNH5S8NI-528" value="" style="endArrow=none;html=1;rounded=0;" edge="1" parent="1">
          <mxGeometry width="50" height="50" relative="1" as="geometry">
            <mxPoint x="-108" y="1019.75" as="sourcePoint" />
            <mxPoint x="-108" y="879.75" as="targetPoint" />
          </mxGeometry>
        </mxCell>
        <mxCell id="9ttiAXNQikp2hNH5S8NI-529" value="" style="endArrow=none;html=1;rounded=0;exitX=1;exitY=0.5;exitDx=0;exitDy=0;" edge="1" parent="1">
          <mxGeometry width="50" height="50" relative="1" as="geometry">
            <mxPoint x="-249" y="1160.4099999999999" as="sourcePoint" />
            <mxPoint x="-109" y="1160" as="targetPoint" />
          </mxGeometry>
        </mxCell>
        <mxCell id="9ttiAXNQikp2hNH5S8NI-530" value="" style="endArrow=none;html=1;rounded=0;" edge="1" parent="1">
          <mxGeometry width="50" height="50" relative="1" as="geometry">
            <mxPoint x="-108" y="1160" as="sourcePoint" />
            <mxPoint x="-108" y="1020" as="targetPoint" />
          </mxGeometry>
        </mxCell>
        <mxCell id="9ttiAXNQikp2hNH5S8NI-540" value="Kembali ke Menu Utama" style="whiteSpace=wrap;html=1;rounded=1;" vertex="1" parent="1">
          <mxGeometry x="1245" y="253.75" width="120" height="60" as="geometry" />
        </mxCell>
        <mxCell id="9ttiAXNQikp2hNH5S8NI-542" value="" style="edgeStyle=orthogonalEdgeStyle;rounded=0;orthogonalLoop=1;jettySize=auto;html=1;" edge="1" parent="1" source="9ttiAXNQikp2hNH5S8NI-543" target="9ttiAXNQikp2hNH5S8NI-546">
          <mxGeometry relative="1" as="geometry" />
        </mxCell>
        <mxCell id="9ttiAXNQikp2hNH5S8NI-543" value="E" style="ellipse;whiteSpace=wrap;html=1;aspect=fixed;" vertex="1" parent="1">
          <mxGeometry x="4690" y="27.49000000000001" width="91.75" height="91.75" as="geometry" />
        </mxCell>
        <mxCell id="9ttiAXNQikp2hNH5S8NI-544" value="&lt;b style=&quot;&quot;&gt;&lt;font style=&quot;font-size: 24px;&quot;&gt;MENU TAMPILKAN&lt;/font&gt;&lt;/b&gt;&lt;div&gt;&lt;b style=&quot;&quot;&gt;&lt;font style=&quot;font-size: 24px;&quot;&gt;&amp;nbsp;RECYCLE BIN&lt;/font&gt;&lt;/b&gt;&lt;/div&gt;" style="text;html=1;align=center;verticalAlign=middle;resizable=0;points=[];autosize=1;strokeColor=none;fillColor=none;" vertex="1" parent="1">
          <mxGeometry x="4355" y="10" width="240" height="70" as="geometry" />
        </mxCell>
        <mxCell id="9ttiAXNQikp2hNH5S8NI-545" value="" style="edgeStyle=orthogonalEdgeStyle;rounded=0;orthogonalLoop=1;jettySize=auto;html=1;" edge="1" parent="1" source="9ttiAXNQikp2hNH5S8NI-546" target="9ttiAXNQikp2hNH5S8NI-547">
          <mxGeometry relative="1" as="geometry" />
        </mxCell>
        <mxCell id="9ttiAXNQikp2hNH5S8NI-546" value="Menampilkan Recycle bin" style="rounded=1;whiteSpace=wrap;html=1;" vertex="1" parent="1">
          <mxGeometry x="4675.87" y="166.24" width="120" height="60" as="geometry" />
        </mxCell>
        <mxCell id="9ttiAXNQikp2hNH5S8NI-547" value="Kembali ke Menu Utama" style="whiteSpace=wrap;html=1;rounded=1;" vertex="1" parent="1">
          <mxGeometry x="4675.87" y="277.49" width="120" height="60" as="geometry" />
        </mxCell>
        <mxCell id="9ttiAXNQikp2hNH5S8NI-551" value="Ya" style="text;html=1;align=center;verticalAlign=middle;resizable=0;points=[];autosize=1;strokeColor=none;fillColor=none;" vertex="1" parent="1">
          <mxGeometry x="3025" y="283.75" width="40" height="30" as="geometry" />
        </mxCell>
        <mxCell id="9ttiAXNQikp2hNH5S8NI-564" value="" style="edgeStyle=orthogonalEdgeStyle;rounded=0;orthogonalLoop=1;jettySize=auto;html=1;entryX=0;entryY=0.5;entryDx=0;entryDy=0;" edge="1" parent="1" source="9ttiAXNQikp2hNH5S8NI-552" target="9ttiAXNQikp2hNH5S8NI-553">
          <mxGeometry relative="1" as="geometry">
            <mxPoint x="3185" y="363" as="targetPoint" />
          </mxGeometry>
        </mxCell>
        <mxCell id="9ttiAXNQikp2hNH5S8NI-552" value="Input Jumlah Stok(int)" style="rhombus;whiteSpace=wrap;html=1;" vertex="1" parent="1">
          <mxGeometry x="2985" y="323" width="80" height="80" as="geometry" />
        </mxCell>
        <mxCell id="9ttiAXNQikp2hNH5S8NI-553" value="Menampilkan Silahkan masukkan jumlah stok yang valid" style="rounded=1;whiteSpace=wrap;html=1;" vertex="1" parent="1">
          <mxGeometry x="3190" y="333.75" width="120" height="60" as="geometry" />
        </mxCell>
        <mxCell id="9ttiAXNQikp2hNH5S8NI-562" value="Tidak" style="text;html=1;align=center;verticalAlign=middle;resizable=0;points=[];autosize=1;strokeColor=none;fillColor=none;" vertex="1" parent="1">
          <mxGeometry x="3100" y="213.75" width="50" height="30" as="geometry" />
        </mxCell>
        <mxCell id="9ttiAXNQikp2hNH5S8NI-565" value="TIdak" style="text;html=1;align=center;verticalAlign=middle;resizable=0;points=[];autosize=1;strokeColor=none;fillColor=none;" vertex="1" parent="1">
          <mxGeometry x="3100" y="323.13" width="50" height="30" as="geometry" />
        </mxCell>
        <mxCell id="9ttiAXNQikp2hNH5S8NI-566" value="Ya" style="text;html=1;align=center;verticalAlign=middle;resizable=0;points=[];autosize=1;strokeColor=none;fillColor=none;" vertex="1" parent="1">
          <mxGeometry x="3020" y="398" width="40" height="30" as="geometry" />
        </mxCell>
        <mxCell id="9ttiAXNQikp2hNH5S8NI-567" value="Pilihan tidak Valid" style="rounded=1;whiteSpace=wrap;html=1;" vertex="1" parent="1">
          <mxGeometry x="50" y="740" width="120" height="60" as="geometry" />
        </mxCell>
        <mxCell id="9ttiAXNQikp2hNH5S8NI-583" value="Tidak" style="text;html=1;align=center;verticalAlign=middle;resizable=0;points=[];autosize=1;strokeColor=none;fillColor=none;" vertex="1" parent="1">
          <mxGeometry x="295" y="865" width="50" height="30" as="geometry" />
        </mxCell>
        <mxCell id="9ttiAXNQikp2hNH5S8NI-584" value="Tidak" style="text;html=1;align=center;verticalAlign=middle;resizable=0;points=[];autosize=1;strokeColor=none;fillColor=none;" vertex="1" parent="1">
          <mxGeometry x="295" y="1005" width="50" height="30" as="geometry" />
        </mxCell>
        <mxCell id="9ttiAXNQikp2hNH5S8NI-585" value="Tidak" style="text;html=1;align=center;verticalAlign=middle;resizable=0;points=[];autosize=1;strokeColor=none;fillColor=none;" vertex="1" parent="1">
          <mxGeometry x="295" y="1140" width="50" height="30" as="geometry" />
        </mxCell>
        <mxCell id="9ttiAXNQikp2hNH5S8NI-590" value="Pilihan tidak Valid" style="rounded=1;whiteSpace=wrap;html=1;" vertex="1" parent="1">
          <mxGeometry x="-760" y="738" width="120" height="60" as="geometry" />
        </mxCell>
        <mxCell id="9ttiAXNQikp2hNH5S8NI-603" value="Tidak" style="text;html=1;align=center;verticalAlign=middle;resizable=0;points=[];autosize=1;strokeColor=none;fillColor=none;" vertex="1" parent="1">
          <mxGeometry x="-575" y="983.75" width="50" height="30" as="geometry" />
        </mxCell>
      </root>
    </mxGraphModel>
  </diagram>
</mxfile>
